# xmcd
#
# Track frame offsets:
# 150
# 14860
# 29075
# 46365
# 62465
# 80140
# 96050
# 109670
# 126525
# 139750
# 153435
# 168715
# 185635
# 198785
# 214730
#
# Disc length: 3057 seconds
#
#
# Revision: 2
# Processed by: cddbd v1.5.2PL0 Copyright (c) Steve Scherf et al.
# Submitted via: FreeRIP 2.945 
#
DISCID=df0bef0f
DTITLE=Rick and Renner - Bom de Dança
DYEAR=2006
DGENRE=Country
TTITLE0=Pra dá um picote
TTITLE1=Pizeiro
TTITLE2=Berrando que nem boi
TTITLE3=Fujona
TTITLE4=Se apertar ela dá
TTITLE5=Quem chorou fui eu
TTITLE6=Calundu
TTITLE7=Eu e o Sabiá
TTITLE8=Só Coizá
TTITLE9=Cê tá querendo o quê?
TTITLE10=Tem alguem ai?
TTITLE11=Uma Foto sua
TTITLE12=Na vara
TTITLE13=Aqui não paixão
TTITLE14=Mulherada
EXTD=neldvd@hotmail.com
EXTT0=
EXTT1=
EXTT2=
EXTT3=
EXTT4=
EXTT5=
EXTT6=
EXTT7=
EXTT8=
EXTT9=
EXTT10=
EXTT11=
EXTT12=
EXTT13=
EXTT14=
PLAYORDER=
